<svg width="135" height="66" viewBox="0 0 135 66" fill="none" xmlns="http://www.w3.org/2000/svg">
<path d="M41.4653 53.6484C41.4142 54.2054 41.3695 54.7373 41.3311 55.2441C41.2953 55.7484 41.2647 56.2414 41.2391 56.7231C41.2135 57.2023 41.1944 57.6778 41.1816 58.1495C41.1714 58.6186 41.1662 59.0953 41.1662 59.5796C41.1662 59.9559 41.1714 60.2821 41.1816 60.5581C41.1918 60.8341 41.2199 61.0624 41.2659 61.243C41.3145 61.4237 41.3861 61.5579 41.4807 61.6457C41.5778 61.7335 41.712 61.7774 41.8833 61.7774C41.9855 61.7774 42.1005 61.7674 42.2283 61.7473C42.3561 61.7272 42.5082 61.6833 42.6846 61.6156L42.7843 61.9129C42.6463 61.9832 42.5044 62.0471 42.3587 62.1048C42.213 62.1625 42.0699 62.2127 41.9293 62.2554C41.7912 62.298 41.6583 62.3306 41.5305 62.3532C41.4027 62.3783 41.2877 62.3909 41.1854 62.3909C40.9937 62.3909 40.8378 62.3532 40.7176 62.278C40.5975 62.2027 40.5029 62.0973 40.4339 61.9618C40.3674 61.8263 40.3214 61.6645 40.2959 61.4763C40.2729 61.2882 40.2614 61.0812 40.2614 60.8554C40.2614 60.607 40.2678 60.3448 40.2805 60.0688C40.2933 59.7928 40.3099 59.5068 40.3304 59.2108L40.292 59.2032C40.2102 59.4466 40.1118 59.6962 39.9968 59.9522C39.8818 60.2056 39.7501 60.4514 39.6019 60.6898C39.4536 60.9281 39.2887 61.1527 39.1072 61.3634C38.9283 61.5717 38.7315 61.7548 38.5168 61.9129C38.3046 62.071 38.0745 62.1952 37.8266 62.2855C37.5812 62.3758 37.3179 62.421 37.0367 62.421C36.7402 62.421 36.482 62.3808 36.2622 62.3005C36.0424 62.2203 35.8532 62.1099 35.6947 61.9694C35.5363 61.8263 35.4059 61.657 35.3037 61.4613C35.2014 61.2656 35.1209 61.0523 35.0621 60.8215C35.0033 60.5882 34.9624 60.3423 34.9394 60.0839C34.9164 59.8254 34.9049 59.562 34.9049 59.2935C34.9049 59.005 34.9151 58.7014 34.9356 58.3828C34.956 58.0616 34.9803 57.7405 35.0084 57.4194C35.0391 57.0982 35.0723 56.7871 35.1081 56.486C35.1439 56.1849 35.1758 55.909 35.204 55.6581C35.2346 55.4072 35.2602 55.1914 35.2806 55.0108C35.3011 54.8301 35.3113 54.6996 35.3113 54.6194C35.3113 54.5341 35.3037 54.4588 35.2883 54.3935C35.273 54.3283 35.2423 54.2744 35.1963 54.2317C35.1528 54.1891 35.0928 54.1577 35.0161 54.1376C34.9394 54.1151 34.8397 54.1038 34.717 54.1038C34.6301 54.1038 34.5304 54.1088 34.4179 54.1188C34.308 54.1289 34.1828 54.1439 34.0422 54.164L34 53.8441C34.3911 53.7538 34.7196 53.6848 34.9854 53.6371C35.2538 53.5894 35.4762 53.5656 35.6526 53.5656C35.7804 53.5656 35.8865 53.5794 35.9708 53.607C36.0552 53.6321 36.1216 53.6722 36.1702 53.7274C36.2213 53.7826 36.2571 53.8529 36.2776 53.9382C36.298 54.021 36.3082 54.1201 36.3082 54.2355C36.3082 54.3032 36.298 54.4274 36.2776 54.6081C36.2571 54.7887 36.2315 55.007 36.2009 55.2629C36.1702 55.5188 36.1357 55.8048 36.0973 56.121C36.0616 56.4346 36.0283 56.762 35.9977 57.1032C35.967 57.4419 35.9414 57.7844 35.921 58.1306C35.9005 58.4769 35.8903 58.8093 35.8903 59.128C35.8903 59.3262 35.8954 59.5269 35.9056 59.7301C35.9184 59.9333 35.9427 60.1278 35.9785 60.3134C36.0143 60.4991 36.0654 60.6735 36.1319 60.8366C36.1983 60.9996 36.2852 61.1414 36.3926 61.2618C36.4999 61.3823 36.6316 61.4776 36.7875 61.5478C36.946 61.6156 37.1339 61.6495 37.3512 61.6495C37.6093 61.6495 37.8586 61.593 38.0988 61.4801C38.3391 61.3647 38.5641 61.2054 38.7737 61.0022C38.9858 60.7964 39.1801 60.5518 39.3565 60.2683C39.5354 59.9848 39.6901 59.6737 39.8204 59.3349C39.9508 58.9962 40.0556 58.6362 40.1348 58.2548C40.2166 57.871 40.2665 57.4783 40.2844 57.0769C40.292 56.9238 40.2984 56.7746 40.3035 56.629C40.3112 56.4835 40.3176 56.3355 40.3227 56.1849C40.3304 56.0319 40.338 55.8738 40.3457 55.7108C40.3534 55.5477 40.3623 55.3733 40.3726 55.1876C40.3828 54.9995 40.3943 54.7975 40.4071 54.5817C40.4224 54.3659 40.439 54.1289 40.4569 53.8704C40.4595 53.8152 40.4761 53.7676 40.5068 53.7274C40.5374 53.6848 40.5758 53.6496 40.6218 53.622C40.6703 53.5944 40.724 53.5744 40.7828 53.5618C40.8416 53.5468 40.9017 53.5392 40.963 53.5392C41.0372 53.5392 41.119 53.5493 41.2084 53.5694C41.2979 53.5869 41.3835 53.6133 41.4653 53.6484Z" fill="#333333"/>
<path d="M45.1501 54.1866C45.3724 54.6683 45.5935 55.1538 45.8134 55.643C46.0332 56.1323 46.2594 56.6315 46.492 57.1409C46.6377 56.9075 46.7822 56.6704 46.9253 56.4296C47.0685 56.1887 47.2167 55.9366 47.3701 55.6731C47.5235 55.4072 47.6845 55.1274 47.8532 54.8339C48.0219 54.5378 48.2047 54.2192 48.4015 53.878C48.4424 53.8077 48.4846 53.7513 48.528 53.7086C48.5715 53.6634 48.6175 53.6283 48.6661 53.6032C48.7172 53.5781 48.7709 53.5618 48.8271 53.5543C48.8834 53.5443 48.946 53.5392 49.015 53.5392C49.1121 53.5392 49.2208 53.5543 49.3409 53.5844C49.461 53.6145 49.5786 53.671 49.6937 53.7538C49.4304 54.0448 49.1671 54.3547 48.9038 54.6833C48.6405 55.012 48.3836 55.3482 48.1331 55.6919C47.8826 56.0332 47.6398 56.3756 47.4046 56.7194C47.172 57.0606 46.9547 57.3892 46.7528 57.7054C47.0365 58.31 47.3113 58.9059 47.5771 59.493C47.843 60.0801 48.1114 60.6459 48.3823 61.1903C48.4411 61.3082 48.5038 61.4048 48.5702 61.4801C48.6367 61.5529 48.7057 61.6106 48.7773 61.6532C48.8514 61.6959 48.9268 61.726 49.0035 61.7435C49.0802 61.7586 49.1594 61.7661 49.2412 61.7661C49.3562 61.7661 49.4725 61.7536 49.5901 61.7285C49.7103 61.7009 49.833 61.6658 49.9582 61.6231L50.0656 61.9317C49.7435 62.0672 49.4457 62.1776 49.1722 62.2629C48.8987 62.3482 48.6622 62.3909 48.4629 62.3909C48.3734 62.3909 48.289 62.3821 48.2098 62.3645C48.1331 62.3495 48.0603 62.3194 47.9912 62.2742C47.9222 62.2315 47.857 62.1726 47.7957 62.0973C47.7343 62.0195 47.6756 61.9204 47.6193 61.8C47.3637 61.2606 47.1106 60.7111 46.8601 60.1516C46.6096 59.5896 46.3527 59.0251 46.0894 58.4581C45.8364 58.862 45.5987 59.2509 45.3763 59.6247C45.1564 59.9986 44.9545 60.3486 44.7705 60.6747C44.5864 60.9984 44.4215 61.2919 44.2758 61.5554C44.1301 61.8188 44.0074 62.0409 43.9077 62.2215L42.6654 62.3645L42.6271 62.3231C43.0131 61.8188 43.362 61.3572 43.6739 60.9382C43.9883 60.5192 44.2733 60.1315 44.5289 59.7753C44.7871 59.4165 45.0222 59.0841 45.2344 58.778C45.4491 58.4694 45.6498 58.1746 45.8364 57.8935C45.7035 57.6125 45.5718 57.3315 45.4415 57.0505C45.3136 56.7695 45.1871 56.4935 45.0619 56.2226C44.9392 55.9491 44.8177 55.6832 44.6976 55.4247C44.5775 55.1663 44.4599 54.9192 44.3449 54.6833C44.2912 54.5729 44.2362 54.4814 44.18 54.4086C44.1237 54.3358 44.0624 54.2781 43.9959 54.2355C43.932 54.1928 43.8605 54.1627 43.7812 54.1452C43.702 54.1276 43.6125 54.1188 43.5128 54.1188C43.339 54.1188 43.1307 54.1389 42.8878 54.179L42.8457 53.8478C43.2316 53.7525 43.5512 53.6785 43.8042 53.6258C44.0573 53.5706 44.2631 53.543 44.4215 53.543C44.5212 53.543 44.6043 53.5556 44.6708 53.5806C44.7398 53.6057 44.7999 53.6446 44.851 53.6973C44.9047 53.7475 44.9545 53.814 45.0005 53.8968C45.0465 53.9771 45.0964 54.0737 45.1501 54.1866Z" fill="#333333"/>
<path d="M55.1882 53.9946C55.1856 54.1201 55.1818 54.307 55.1767 54.5554C55.1716 54.8038 55.1652 55.0935 55.1575 55.4247C55.1498 55.7534 55.1396 56.1134 55.1268 56.5048C55.1166 56.8937 55.1051 57.2927 55.0923 57.7016C55.0795 58.1081 55.0655 58.5133 55.0501 58.9172C55.0348 59.3211 55.0195 59.7025 55.0041 60.0613C54.9888 60.4201 54.9722 60.7462 54.9543 61.0398C54.9389 61.3308 54.9236 61.5679 54.9083 61.7511C55.1613 61.8163 55.3939 61.8602 55.6061 61.8828C55.8208 61.9029 56.0317 61.9129 56.2388 61.9129C56.6682 61.9129 57.0516 61.8602 57.389 61.7548C57.729 61.6495 58.0268 61.5027 58.2824 61.3145C58.5406 61.1238 58.7591 60.898 58.9381 60.6371C59.1196 60.3762 59.2665 60.0901 59.379 59.779C59.494 59.4679 59.5771 59.1367 59.6282 58.7855C59.6819 58.4342 59.7088 58.0742 59.7088 57.7054C59.7088 57.1534 59.6461 56.6478 59.5209 56.1887C59.3982 55.7296 59.1963 55.3344 58.9151 55.0032C58.6365 54.672 58.2722 54.4149 57.8223 54.2317C57.3724 54.0461 56.8228 53.9532 56.1736 53.9532C56.0125 53.9532 55.8502 53.957 55.6866 53.9645C55.523 53.972 55.3569 53.9821 55.1882 53.9946ZM52.8761 53.8704C53.1471 53.8203 53.4257 53.7726 53.712 53.7274C53.9983 53.6797 54.2871 53.6384 54.5785 53.6032C54.8699 53.5681 55.1613 53.5405 55.4527 53.5204C55.7467 53.4978 56.0368 53.4866 56.3231 53.4866C56.7219 53.4866 57.1079 53.5116 57.4811 53.5618C57.8568 53.6095 58.2096 53.6923 58.5393 53.8102C58.8716 53.9256 59.1758 54.0812 59.4519 54.2769C59.7279 54.4701 59.9644 54.7122 60.1612 55.0032C60.3606 55.2918 60.5152 55.6342 60.6252 56.0306C60.7351 56.4271 60.79 56.8849 60.79 57.4043C60.79 57.871 60.7427 58.3188 60.6482 58.7478C60.5536 59.1744 60.4156 59.572 60.2341 59.9409C60.0526 60.3097 59.8302 60.6446 59.5669 60.9457C59.3062 61.2468 59.0071 61.5052 58.6697 61.721C58.3348 61.9342 57.9642 62.0998 57.5577 62.2177C57.1539 62.3332 56.7193 62.3909 56.2541 62.3909C56.0138 62.3909 55.7697 62.3746 55.5217 62.3419C55.2738 62.3093 55.0156 62.2591 54.7472 62.1914L53.988 62.2817L53.919 62.2742C53.9369 62.1136 53.9561 61.9016 53.9765 61.6382C53.997 61.3722 54.0162 61.0636 54.0341 60.7124C54.0545 60.3611 54.0737 59.971 54.0916 59.5419C54.1095 59.1104 54.1248 58.6475 54.1376 58.1532C54.1529 57.6565 54.1644 57.1333 54.1721 56.5839C54.1798 56.0344 54.1836 55.4636 54.1836 54.8715C54.1836 54.7511 54.1785 54.6457 54.1683 54.5554C54.158 54.4651 54.1312 54.3898 54.0877 54.3296C54.0468 54.2694 53.9842 54.2242 53.8999 54.1941C53.8181 54.164 53.7056 54.1489 53.5624 54.1489C53.3937 54.1489 53.1777 54.1677 52.9144 54.2054L52.8761 53.8704Z" fill="#333333"/>
<path d="M65.6442 61.0548C65.6596 61.0624 65.6787 61.0737 65.7017 61.0887C65.7273 61.1013 65.7503 61.1163 65.7707 61.1339C65.7912 61.1489 65.8091 61.1665 65.8244 61.1866C65.8398 61.2041 65.8474 61.2217 65.8474 61.2392C65.8474 61.2493 65.8436 61.2593 65.8359 61.2694C65.6928 61.4651 65.5381 61.6357 65.372 61.7812C65.2084 61.9242 65.0371 62.0446 64.8582 62.1425C64.6818 62.2378 64.5016 62.3081 64.3176 62.3532C64.1335 62.4009 63.952 62.4247 63.7731 62.4247C63.4664 62.4247 63.1852 62.3633 62.9296 62.2403C62.6739 62.1174 62.4541 61.9493 62.2701 61.736C62.086 61.5228 61.9416 61.2731 61.8368 60.9871C61.7345 60.6986 61.6834 60.39 61.6834 60.0613C61.6834 59.7928 61.7128 59.5244 61.7716 59.2559C61.833 58.9875 61.9199 58.7315 62.0323 58.4882C62.1474 58.2448 62.2867 58.019 62.4503 57.8108C62.6139 57.6 62.7992 57.4181 63.0062 57.2651C63.2158 57.1095 63.4446 56.9878 63.6926 56.9C63.9431 56.8122 64.2115 56.7683 64.4978 56.7683C64.6869 56.7683 64.8671 56.7934 65.0384 56.8435C65.2097 56.8937 65.3592 56.9665 65.487 57.0618C65.6174 57.1547 65.7209 57.2701 65.7976 57.4081C65.8743 57.5461 65.9126 57.7029 65.9126 57.8785C65.9126 58.1344 65.827 58.3577 65.6557 58.5484C65.487 58.7391 65.2531 58.9009 64.954 59.0339C64.655 59.1668 64.3022 59.2747 63.8958 59.3575C63.4919 59.4378 63.0548 59.498 62.5845 59.5382V59.6022C62.5845 59.9233 62.6254 60.2168 62.7072 60.4828C62.7915 60.7487 62.9065 60.9771 63.0522 61.1677C63.198 61.3559 63.3692 61.5027 63.566 61.6081C63.7629 61.7134 63.975 61.7661 64.2025 61.7661C64.4326 61.7661 64.6678 61.7109 64.908 61.6005C65.1509 61.4876 65.3963 61.3057 65.6442 61.0548ZM64.9234 58.0328C64.9234 57.9174 64.9029 57.8095 64.862 57.7091C64.8237 57.6088 64.7687 57.5222 64.6972 57.4495C64.6281 57.3742 64.5451 57.3152 64.4479 57.2726C64.3508 57.2299 64.246 57.2086 64.1335 57.2086C63.9674 57.2086 63.8165 57.2375 63.6811 57.2952C63.5456 57.3529 63.4242 57.4319 63.3168 57.5323C63.2095 57.6301 63.1149 57.7455 63.0331 57.8785C62.9513 58.009 62.881 58.1482 62.8222 58.2962C62.766 58.4443 62.7199 58.5961 62.6842 58.7516C62.6484 58.9072 62.6228 59.059 62.6075 59.207C62.9705 59.1819 63.2951 59.1392 63.5814 59.079C63.8702 59.0163 64.1131 58.9373 64.3099 58.8419C64.5093 58.7441 64.6614 58.6287 64.7662 58.4957C64.871 58.3602 64.9234 58.2059 64.9234 58.0328Z" fill="#333333"/>
<path d="M68.1518 62.3532C68.1186 62.1124 68.079 61.8602 68.033 61.5968C67.987 61.3308 67.9371 61.0636 67.8834 60.7952C67.8323 60.5242 67.7773 60.257 67.7186 59.9935C67.6623 59.7301 67.6048 59.4792 67.546 59.2409C67.4898 59.0025 67.4348 58.783 67.3811 58.5823C67.3275 58.3815 67.2776 58.2084 67.2316 58.0629C67.183 57.9149 67.137 57.7944 67.0936 57.7016C67.0501 57.6063 67.0041 57.5323 66.9555 57.4796C66.9095 57.4244 66.8584 57.3867 66.8022 57.3667C66.7459 57.3466 66.682 57.3366 66.6105 57.3366C66.5287 57.3366 66.4405 57.3453 66.3459 57.3629C66.2539 57.3805 66.1427 57.4043 66.0123 57.4344L65.9548 57.1634C66.1082 57.1082 66.2577 57.0581 66.4034 57.0129C66.5517 56.9652 66.6884 56.9251 66.8137 56.8925C66.9389 56.8599 67.0501 56.8348 67.1472 56.8172C67.2444 56.7996 67.3211 56.7909 67.3773 56.7909C67.4463 56.7909 67.5089 56.8034 67.5652 56.8285C67.624 56.8511 67.6802 56.8912 67.7339 56.9489C67.7876 57.0066 67.8387 57.0857 67.8873 57.186C67.9358 57.2839 67.9844 57.4081 68.033 57.5586C68.0662 57.659 68.1045 57.7894 68.148 57.95C68.194 58.1081 68.2413 58.2887 68.2899 58.4919C68.3384 58.6952 68.3883 58.916 68.4394 59.1543C68.4931 59.3901 68.5442 59.6348 68.5928 59.8882C68.6413 60.1416 68.6861 60.4 68.727 60.6634C68.7704 60.9244 68.8075 61.1815 68.8382 61.4349C68.966 61.2518 69.0938 61.0624 69.2216 60.8667C69.352 60.671 69.4759 60.4728 69.5935 60.272C69.7137 60.0713 69.8248 59.8694 69.9271 59.6661C70.0293 59.4604 70.1188 59.2572 70.1955 59.0565C70.2722 58.8557 70.3322 58.6588 70.3757 58.4656C70.4192 58.2724 70.4409 58.0855 70.4409 57.9048C70.4409 57.679 70.4 57.467 70.3182 57.2688C70.2389 57.0706 70.1022 56.8962 69.9079 56.7457L69.9501 56.6554C69.9961 56.6504 70.0408 56.6466 70.0843 56.6441C70.1278 56.6416 70.1699 56.6403 70.2108 56.6403C70.5534 56.6403 70.8115 56.7194 70.9853 56.8774C71.1592 57.0355 71.2461 57.255 71.2461 57.536C71.2461 57.7493 71.2001 57.9927 71.108 58.2661C71.016 58.5371 70.8946 58.8219 70.7438 59.1204C70.593 59.419 70.4217 59.7238 70.23 60.0349C70.0383 60.3435 69.8427 60.6421 69.6434 60.9306C69.444 61.2192 69.2497 61.4901 69.0605 61.7435C68.8714 61.9944 68.704 62.2115 68.5583 62.3946L68.1518 62.3532Z" fill="#333333"/>
<path d="M75.6593 61.0548C75.6747 61.0624 75.6938 61.0737 75.7168 61.0887C75.7424 61.1013 75.7654 61.1163 75.7859 61.1339C75.8063 61.1489 75.8242 61.1665 75.8395 61.1866C75.8549 61.2041 75.8625 61.2217 75.8625 61.2392C75.8625 61.2493 75.8587 61.2593 75.851 61.2694C75.7079 61.4651 75.5532 61.6357 75.3871 61.7812C75.2235 61.9242 75.0522 62.0446 74.8733 62.1425C74.6969 62.2378 74.5167 62.3081 74.3327 62.3532C74.1486 62.4009 73.9671 62.4247 73.7882 62.4247C73.4815 62.4247 73.2003 62.3633 72.9447 62.2403C72.689 62.1174 72.4692 61.9493 72.2852 61.736C72.1011 61.5228 71.9567 61.2731 71.8519 60.9871C71.7496 60.6986 71.6985 60.39 71.6985 60.0613C71.6985 59.7928 71.7279 59.5244 71.7867 59.2559C71.8481 58.9875 71.935 58.7315 72.0474 58.4882C72.1625 58.2448 72.3018 58.019 72.4654 57.8108C72.629 57.6 72.8143 57.4181 73.0213 57.2651C73.231 57.1095 73.4597 56.9878 73.7077 56.9C73.9582 56.8122 74.2266 56.7683 74.5129 56.7683C74.702 56.7683 74.8822 56.7934 75.0535 56.8435C75.2248 56.8937 75.3743 56.9665 75.5021 57.0618C75.6325 57.1547 75.736 57.2701 75.8127 57.4081C75.8894 57.5461 75.9277 57.7029 75.9277 57.8785C75.9277 58.1344 75.8421 58.3577 75.6708 58.5484C75.5021 58.7391 75.2682 58.9009 74.9692 59.0339C74.6701 59.1668 74.3173 59.2747 73.9109 59.3575C73.507 59.4378 73.0699 59.498 72.5996 59.5382V59.6022C72.5996 59.9233 72.6405 60.2168 72.7223 60.4828C72.8066 60.7487 72.9217 60.9771 73.0674 61.1677C73.2131 61.3559 73.3843 61.5027 73.5811 61.6081C73.778 61.7134 73.9901 61.7661 74.2176 61.7661C74.4477 61.7661 74.6829 61.7109 74.9231 61.6005C75.166 61.4876 75.4114 61.3057 75.6593 61.0548ZM74.9385 58.0328C74.9385 57.9174 74.918 57.8095 74.8771 57.7091C74.8388 57.6088 74.7838 57.5222 74.7123 57.4495C74.6432 57.3742 74.5602 57.3152 74.463 57.2726C74.3659 57.2299 74.2611 57.2086 74.1486 57.2086C73.9825 57.2086 73.8317 57.2375 73.6962 57.2952C73.5607 57.3529 73.4393 57.4319 73.3319 57.5323C73.2246 57.6301 73.13 57.7455 73.0482 57.8785C72.9664 58.009 72.8961 58.1482 72.8373 58.2962C72.7811 58.4443 72.7351 58.5961 72.6993 58.7516C72.6635 58.9072 72.6379 59.059 72.6226 59.207C72.9856 59.1819 73.3102 59.1392 73.5965 59.079C73.8853 59.0163 74.1282 58.9373 74.325 58.8419C74.5244 58.7441 74.6765 58.6287 74.7813 58.4957C74.8861 58.3602 74.9385 58.2059 74.9385 58.0328Z" fill="#333333"/>
<path d="M78.4928 52.1204C78.4417 52.547 78.3906 52.9848 78.3395 53.4339C78.2909 53.8805 78.2436 54.3333 78.1976 54.7925C78.1542 55.2491 78.1133 55.7082 78.0749 56.1699C78.0366 56.6315 78.0033 57.0869 77.9752 57.536C77.9471 57.9826 77.9254 58.4217 77.91 58.8532C77.8947 59.2848 77.887 59.6987 77.887 60.0952C77.887 60.3435 77.8896 60.5568 77.8947 60.7349C77.9024 60.9131 77.9126 61.0636 77.9254 61.1866C77.9407 61.3095 77.9599 61.4086 77.9829 61.4839C78.0085 61.5591 78.0391 61.6168 78.0749 61.657C78.1107 61.6971 78.1529 61.7247 78.2014 61.7398C78.25 61.7523 78.3075 61.7586 78.374 61.7586C78.4967 61.7586 78.6283 61.741 78.7689 61.7059C78.9121 61.6683 79.0565 61.6168 79.2022 61.5516L79.275 61.7473C79.183 61.8201 79.0667 61.8941 78.9261 61.9694C78.7881 62.0446 78.6424 62.1136 78.489 62.1763C78.3356 62.2391 78.1848 62.2892 78.0366 62.3269C77.8909 62.367 77.7643 62.3871 77.657 62.3871C77.5189 62.3871 77.409 62.352 77.3272 62.2817C77.248 62.214 77.1866 62.1023 77.1432 61.9468C77.1023 61.7912 77.0754 61.5892 77.0627 61.3409C77.0524 61.09 77.0473 60.7851 77.0473 60.4263C77.0473 60.2959 77.0512 60.1102 77.0588 59.8694C77.0665 59.626 77.0767 59.3437 77.0895 59.0226C77.1048 58.7014 77.1215 58.3502 77.1394 57.9688C77.1572 57.5875 77.1764 57.1935 77.1969 56.7871C77.2173 56.3781 77.239 55.9667 77.262 55.5527C77.2851 55.1362 77.3081 54.7348 77.3311 54.3484C77.3541 53.9595 77.3758 53.5932 77.3962 53.2495C77.4167 52.9057 77.4359 52.6022 77.4538 52.3387C77.4563 52.2785 77.4742 52.2271 77.5074 52.1844C77.5407 52.1392 77.5828 52.1041 77.634 52.079C77.6877 52.0514 77.7464 52.0314 77.8103 52.0188C77.8768 52.0063 77.9433 52 78.0097 52C78.1631 52 78.3241 52.0401 78.4928 52.1204Z" fill="#333333"/>
<path d="M79.6201 60.0575C79.6201 59.8041 79.647 59.547 79.7006 59.286C79.7543 59.0251 79.8336 58.7729 79.9384 58.5296C80.0432 58.2837 80.1723 58.0541 80.3256 57.8409C80.4816 57.6251 80.6605 57.4369 80.8624 57.2763C81.0644 57.1158 81.2893 56.9891 81.5373 56.8962C81.7852 56.8034 82.0549 56.757 82.3463 56.757C82.6735 56.757 82.9623 56.8247 83.2128 56.9602C83.4659 57.0957 83.6781 57.2751 83.8493 57.4984C84.0206 57.7192 84.1497 57.9713 84.2366 58.2548C84.326 58.5384 84.3708 58.8281 84.3708 59.1242C84.3708 59.3776 84.3439 59.6348 84.2903 59.8957C84.2366 60.1566 84.1561 60.41 84.0487 60.6559C83.9439 60.8993 83.8135 61.1289 83.6576 61.3446C83.5042 61.5579 83.3266 61.7448 83.1246 61.9054C82.9227 62.066 82.6978 62.1927 82.4498 62.2855C82.2019 62.3783 81.9322 62.4247 81.6408 62.4247C81.3136 62.4247 81.0235 62.357 80.7704 62.2215C80.5199 62.086 80.309 61.9079 80.1377 61.6871C79.969 61.4638 79.84 61.2104 79.7505 60.9269C79.6636 60.6434 79.6201 60.3536 79.6201 60.0575ZM80.5365 59.7C80.5365 59.8706 80.5493 60.0437 80.5749 60.2194C80.603 60.395 80.6451 60.5643 80.7014 60.7274C80.7576 60.8905 80.8266 61.0435 80.9084 61.1866C80.9928 61.3271 81.0912 61.45 81.2037 61.5554C81.3187 61.6608 81.4465 61.7435 81.5871 61.8038C81.7302 61.864 81.8875 61.8941 82.0587 61.8941C82.2453 61.8941 82.4089 61.8552 82.5495 61.7774C82.6926 61.6971 82.8153 61.5918 82.9176 61.4613C83.0224 61.3308 83.108 61.1815 83.1745 61.0134C83.2435 60.8453 83.2985 60.6722 83.3394 60.4941C83.3803 60.3134 83.4084 60.1353 83.4237 59.9597C83.4416 59.7841 83.4506 59.6222 83.4506 59.4742C83.4506 59.3011 83.4365 59.128 83.4084 58.9548C83.3828 58.7792 83.3419 58.6111 83.2857 58.4505C83.2294 58.2875 83.1592 58.1357 83.0748 57.9952C82.993 57.8522 82.8946 57.7292 82.7796 57.6263C82.6671 57.521 82.5393 57.4382 82.3961 57.378C82.2555 57.3177 82.0996 57.2876 81.9284 57.2876C81.7417 57.2876 81.5769 57.3265 81.4337 57.4043C81.2931 57.4821 81.1704 57.5862 81.0656 57.7167C80.9634 57.8471 80.8778 57.9964 80.8087 58.1645C80.7423 58.3326 80.6886 58.5057 80.6477 58.6839C80.6068 58.862 80.5774 59.0401 80.5595 59.2183C80.5442 59.3939 80.5365 59.5545 80.5365 59.7Z" fill="#333333"/>
<path d="M84.6277 57.2011C84.914 57.1158 85.1581 57.0468 85.36 56.9941C85.562 56.9414 85.7307 56.9 85.8661 56.8699C86.0042 56.8398 86.1115 56.8197 86.1882 56.8097C86.2675 56.7971 86.3263 56.7909 86.3646 56.7909C86.4285 56.7909 86.4886 56.8009 86.5448 56.821C86.601 56.8385 86.6496 56.8699 86.6905 56.9151C86.734 56.9602 86.7672 57.0217 86.7902 57.0995C86.8132 57.1747 86.8247 57.2688 86.8247 57.3817C86.8247 57.4194 86.8222 57.4934 86.817 57.6038C86.8145 57.7142 86.8081 57.8672 86.7979 58.0629C86.7876 58.2561 86.7736 58.4944 86.7557 58.778C86.7404 59.059 86.7199 59.3901 86.6943 59.7715L86.7404 59.7753C86.9397 59.2885 87.1545 58.8582 87.3845 58.4844C87.6171 58.1081 87.8523 57.7919 88.09 57.536C88.3303 57.2801 88.5693 57.0869 88.807 56.9565C89.0448 56.8235 89.271 56.757 89.4857 56.757C89.6595 56.757 89.8129 56.7896 89.9458 56.8548C90.0787 56.9176 90.1938 57.0029 90.2909 57.1108C90.3906 57.2161 90.4737 57.3391 90.5401 57.4796C90.6066 57.6176 90.6603 57.7631 90.7012 57.9161C90.7421 58.0667 90.7715 58.2197 90.7893 58.3753C90.8072 58.5308 90.8162 58.6763 90.8162 58.8118C90.8162 59.1806 90.7778 59.5256 90.7012 59.8468C90.6245 60.1679 90.5197 60.4627 90.3867 60.7312C90.2538 60.9971 90.0966 61.2355 89.9151 61.4462C89.7336 61.657 89.5368 61.8351 89.3247 61.9806C89.115 62.1237 88.8939 62.2328 88.6613 62.3081C88.4313 62.3858 88.1999 62.4247 87.9673 62.4247C87.7194 62.4247 87.4778 62.3808 87.2426 62.293C87.0075 62.2052 86.7864 62.0597 86.5793 61.8565C86.5512 62.4862 86.5231 63.136 86.495 63.8059C86.4668 64.4783 86.4515 65.1796 86.449 65.9097L85.6438 66L85.5632 65.9962C85.6016 65.5271 85.6374 65.0341 85.6706 64.5172C85.7038 64.0029 85.7345 63.486 85.7626 62.9667C85.7907 62.4473 85.8163 61.9367 85.8393 61.4349C85.8623 60.9306 85.8815 60.4577 85.8968 60.0161C85.9122 59.5746 85.9237 59.1744 85.9313 58.8156C85.9416 58.4543 85.9467 58.1557 85.9467 57.9199C85.9467 57.8246 85.9416 57.7418 85.9313 57.6715C85.9211 57.5987 85.9007 57.5385 85.87 57.4909C85.8419 57.4432 85.7997 57.4081 85.7434 57.3855C85.6872 57.3604 85.6131 57.3478 85.5211 57.3478C85.4265 57.3478 85.3115 57.3579 85.176 57.378C85.0405 57.398 84.8769 57.4319 84.6852 57.4796L84.6277 57.2011ZM86.6138 61.4462C86.8311 61.6269 87.0471 61.7599 87.2618 61.8452C87.4791 61.9305 87.6964 61.9731 87.9136 61.9731C88.1999 61.9731 88.4632 61.9142 88.7035 61.7962C88.9463 61.6758 89.1547 61.4977 89.3285 61.2618C89.5049 61.026 89.6416 60.7349 89.7388 60.3887C89.8384 60.04 89.8883 59.636 89.8883 59.1769C89.8883 59.0063 89.8742 58.8306 89.8461 58.65C89.8206 58.4694 89.7784 58.3063 89.7196 58.1608C89.6633 58.0127 89.5879 57.8923 89.4934 57.7995C89.4013 57.7041 89.2889 57.6565 89.1559 57.6565C89 57.6565 88.8454 57.6966 88.692 57.7769C88.5386 57.8547 88.3891 57.9613 88.2434 58.0968C88.1002 58.2297 87.9622 58.3866 87.8293 58.5672C87.6964 58.7478 87.5711 58.9398 87.4535 59.143C87.3359 59.3437 87.2286 59.552 87.1315 59.7677C87.0343 59.981 86.9487 60.1892 86.8746 60.3925C86.803 60.5957 86.7442 60.7876 86.6982 60.9683C86.6547 61.1489 86.6266 61.3082 86.6138 61.4462Z" fill="#333333"/>
<path d="M95.6129 61.0548C95.6282 61.0624 95.6474 61.0737 95.6704 61.0887C95.6959 61.1013 95.7189 61.1163 95.7394 61.1339C95.7598 61.1489 95.7777 61.1665 95.7931 61.1866C95.8084 61.2041 95.8161 61.2217 95.8161 61.2392C95.8161 61.2493 95.8122 61.2593 95.8046 61.2694C95.6614 61.4651 95.5068 61.6357 95.3406 61.7812C95.177 61.9242 95.0058 62.0446 94.8268 62.1425C94.6505 62.2378 94.4702 62.3081 94.2862 62.3532C94.1022 62.4009 93.9207 62.4247 93.7417 62.4247C93.435 62.4247 93.1538 62.3633 92.8982 62.2403C92.6426 62.1174 92.4227 61.9493 92.2387 61.736C92.0547 61.5228 91.9102 61.2731 91.8054 60.9871C91.7032 60.6986 91.6521 60.39 91.6521 60.0613C91.6521 59.7928 91.6815 59.5244 91.7402 59.2559C91.8016 58.9875 91.8885 58.7315 92.001 58.4882C92.116 58.2448 92.2553 58.019 92.4189 57.8108C92.5825 57.6 92.7678 57.4181 92.9749 57.2651C93.1845 57.1095 93.4133 56.9878 93.6612 56.9C93.9117 56.8122 94.1801 56.7683 94.4664 56.7683C94.6556 56.7683 94.8358 56.7934 95.007 56.8435C95.1783 56.8937 95.3278 56.9665 95.4556 57.0618C95.586 57.1547 95.6895 57.2701 95.7662 57.4081C95.8429 57.5461 95.8813 57.7029 95.8813 57.8785C95.8813 58.1344 95.7956 58.3577 95.6244 58.5484C95.4556 58.7391 95.2218 58.9009 94.9227 59.0339C94.6236 59.1668 94.2709 59.2747 93.8644 59.3575C93.4606 59.4378 93.0234 59.498 92.5531 59.5382V59.6022C92.5531 59.9233 92.594 60.2168 92.6758 60.4828C92.7602 60.7487 92.8752 60.9771 93.0209 61.1677C93.1666 61.3559 93.3379 61.5027 93.5347 61.6081C93.7315 61.7134 93.9437 61.7661 94.1712 61.7661C94.4012 61.7661 94.6364 61.7109 94.8767 61.6005C95.1195 61.4876 95.3649 61.3057 95.6129 61.0548ZM94.892 58.0328C94.892 57.9174 94.8716 57.8095 94.8307 57.7091C94.7923 57.6088 94.7374 57.5222 94.6658 57.4495C94.5968 57.3742 94.5137 57.3152 94.4166 57.2726C94.3194 57.2299 94.2146 57.2086 94.1022 57.2086C93.936 57.2086 93.7852 57.2375 93.6497 57.2952C93.5142 57.3529 93.3928 57.4319 93.2855 57.5323C93.1781 57.6301 93.0835 57.7455 93.0017 57.8785C92.9199 58.009 92.8496 58.1482 92.7908 58.2962C92.7346 58.4443 92.6886 58.5961 92.6528 58.7516C92.617 58.9072 92.5915 59.059 92.5761 59.207C92.9391 59.1819 93.2637 59.1392 93.55 59.079C93.8389 59.0163 94.0817 58.9373 94.2785 58.8419C94.4779 58.7441 94.63 58.6287 94.7348 58.4957C94.8396 58.3602 94.892 58.2059 94.892 58.0328Z" fill="#333333"/>
<path d="M97.1504 62.3194L97.089 62.3156C97.1095 62.0772 97.1287 61.8176 97.1466 61.5366C97.1645 61.2556 97.1811 60.9708 97.1964 60.6823C97.2117 60.3912 97.2245 60.1039 97.2347 59.8204C97.2475 59.5344 97.2578 59.2685 97.2654 59.0226C97.2756 58.7742 97.282 58.5522 97.2846 58.3565C97.2897 58.1608 97.2923 58.0065 97.2923 57.8935C97.2923 57.8007 97.2884 57.7204 97.2808 57.6527C97.2731 57.5849 97.2552 57.5285 97.2271 57.4833C97.2015 57.4382 97.1632 57.4056 97.1121 57.3855C97.0609 57.3629 96.9919 57.3516 96.905 57.3516C96.8615 57.3516 96.8168 57.3541 96.7708 57.3591C96.7248 57.3642 96.6737 57.3717 96.6174 57.3817C96.5612 57.3918 96.4973 57.4056 96.4257 57.4231C96.3567 57.4382 96.2762 57.457 96.1842 57.4796L96.1266 57.2086C96.551 57.0581 96.8948 56.9527 97.1581 56.8925C97.4214 56.8297 97.599 56.7984 97.691 56.7984C97.8597 56.7984 97.9799 56.8473 98.0514 56.9452C98.1256 57.0405 98.1626 57.1835 98.1626 57.3742C98.1626 57.3918 98.1601 57.4432 98.155 57.5285C98.1499 57.6138 98.1422 57.7254 98.132 57.8634C98.1243 57.9989 98.1141 58.157 98.1013 58.3376C98.0885 58.5183 98.0732 58.7127 98.0553 58.921C98.0399 59.1267 98.0221 59.3425 98.0016 59.5683C97.9812 59.7916 97.9594 60.0149 97.9364 60.2382L97.9748 60.2419C98.0975 59.7502 98.2355 59.2923 98.3889 58.8683C98.5448 58.4418 98.7186 58.0717 98.9103 57.7581C99.1046 57.4444 99.3168 57.1986 99.5468 57.0204C99.7794 56.8398 100.034 56.7495 100.31 56.7495C100.407 56.7495 100.498 56.7645 100.582 56.7946C100.666 56.8247 100.739 56.8674 100.801 56.9226C100.862 56.9753 100.911 57.0392 100.946 57.1145C100.982 57.1873 101 57.2676 101 57.3554C101 57.4683 100.974 57.5774 100.923 57.6828C100.875 57.7857 100.797 57.8772 100.689 57.9575H100.659C100.551 57.8697 100.449 57.807 100.352 57.7694C100.257 57.7292 100.156 57.7091 100.049 57.7091C99.9341 57.7091 99.8229 57.7305 99.7155 57.7731C99.6082 57.8158 99.5097 57.8772 99.4203 57.9575C99.2746 58.088 99.1391 58.2611 99.0138 58.4769C98.8886 58.6901 98.7736 58.9272 98.6688 59.1882C98.5665 59.4491 98.4732 59.7238 98.3889 60.0124C98.3071 60.2984 98.2355 60.5781 98.1741 60.8516C98.1154 61.1226 98.0668 61.3785 98.0284 61.6194C97.9927 61.8577 97.9671 62.0584 97.9518 62.2215L97.1504 62.3194Z" fill="#333333"/>
<path d="M34.5407 22.2894C34.2727 23.2656 33.8803 23.993 33.3635 24.4716C32.8658 24.9501 32.3489 25.2851 31.813 25.4766C31.3536 25.6297 30.9133 25.7063 30.4922 25.7063C30.0902 25.7063 29.7839 25.6871 29.5733 25.6488C29.0565 25.5531 28.6449 25.3808 28.3387 25.132C28.0324 24.864 27.8027 24.5577 27.6495 24.2132C27.5155 23.8686 27.439 23.5145 27.4198 23.1508C27.3815 22.7679 27.3815 22.4042 27.4198 22.0597C27.4581 21.6577 27.5251 21.294 27.6208 20.9686C27.7165 20.624 27.8122 20.3464 27.908 20.1359C28.0802 19.7339 28.2717 19.3606 28.4822 19.0161C28.6928 18.6524 28.9225 18.3365 29.1713 18.0685C29.4202 17.8005 29.669 17.59 29.9179 17.4368C30.1859 17.2837 30.4634 17.2167 30.7506 17.2358C30.9994 17.2741 31.2483 17.3315 31.4971 17.4081C31.7077 17.4847 31.9374 17.59 32.1862 17.724C32.4351 17.858 32.6648 18.0494 32.8754 18.2982C32.8945 18.3174 32.9424 18.3844 33.0189 18.4992C33.1146 18.6141 33.1816 18.7768 33.2199 18.9873C33.2582 19.1979 33.2391 19.4468 33.1625 19.7339C33.1051 20.021 32.9328 20.3369 32.6456 20.6814C32.3777 21.026 31.9661 21.4088 31.411 21.83C30.875 22.2319 30.1476 22.6531 29.2288 23.0933C29.1905 23.3805 29.1713 23.6293 29.1713 23.8399C29.1905 24.0505 29.2192 24.2323 29.2575 24.3854C29.2958 24.5577 29.334 24.6917 29.3723 24.7874C29.4489 24.9023 29.5829 24.9884 29.7743 25.0459C29.9657 25.0841 30.1763 25.0937 30.406 25.0746C30.6357 25.0554 30.8559 25.0267 31.0664 24.9884C31.2961 24.931 31.4875 24.8736 31.6407 24.8161C32.0235 24.663 32.3394 24.4524 32.5882 24.1845C32.8562 23.9165 33.0763 23.6389 33.2486 23.3518C33.4209 23.0646 33.5453 22.7966 33.6219 22.5478C33.7176 22.2798 33.7846 22.0692 33.8229 21.9161C33.842 21.8204 33.8612 21.7342 33.8803 21.6577C33.8995 21.5811 33.909 21.5141 33.909 21.4567V21.2844C34.177 21.4375 34.3589 21.6194 34.4546 21.83C34.512 21.9257 34.5503 22.0214 34.5694 22.1171C34.5694 22.1937 34.5599 22.2415 34.5407 22.2607V22.2894ZM29.803 21.026C29.7265 21.2174 29.6595 21.3993 29.602 21.5715C29.5446 21.7438 29.4872 21.9065 29.4298 22.0597C29.736 21.8682 30.0997 21.629 30.5209 21.3418C30.9611 21.0356 31.3536 20.7197 31.6981 20.3943C32.0427 20.0689 32.2819 19.7339 32.4159 19.3893C32.5499 19.0448 32.4925 18.7385 32.2437 18.4705V18.4418C32.0905 18.4609 31.947 18.4896 31.813 18.5279C31.679 18.5662 31.5354 18.6428 31.3823 18.7576C31.076 18.9682 30.7889 19.2745 30.5209 19.6765C30.2529 20.0784 30.0136 20.5283 29.803 21.026Z" fill="#37607F"/>
<path d="M35.8641 25.9647C35.2324 25.8115 34.6964 25.6105 34.2562 25.3617C33.8159 25.0937 33.5671 24.7779 33.5096 24.4142C33.4522 24.0696 33.4618 23.6006 33.5383 23.0072C33.5958 22.4138 33.6819 21.7917 33.7968 21.1408C33.9308 20.49 34.0648 19.8679 34.1987 19.2745C34.3327 18.6811 34.4476 18.2121 34.5433 17.8675C34.5816 17.7144 34.5816 17.6187 34.5433 17.5804C34.505 17.523 34.505 17.4464 34.5433 17.3507C34.5625 17.2933 34.6199 17.2645 34.7156 17.2645H34.8017H34.8592C34.8783 17.2837 34.8974 17.2933 34.9166 17.2933C35.0889 17.3507 35.3186 17.4464 35.6057 17.5804C35.912 17.6952 36.18 17.858 36.4097 18.0685C36.448 18.0877 36.4862 18.1355 36.5245 18.2121C36.5628 18.2695 36.5628 18.3557 36.5245 18.4705V18.5279C36.2565 19.4276 36.046 20.2794 35.8928 21.0834C35.7588 21.8874 35.6536 22.5956 35.577 23.2082C35.5004 23.9356 35.443 24.6056 35.4047 25.2181C35.9024 25.0076 36.2948 24.6821 36.582 24.2419C36.8691 23.8016 37.0892 23.3613 37.2424 22.9211C37.4146 22.4234 37.5199 21.8778 37.5582 21.2844C37.8262 21.4375 38.008 21.6194 38.1038 21.83C38.1612 21.9257 38.1995 22.0214 38.2186 22.1171C38.1038 22.8254 37.9123 23.4283 37.6443 23.926C37.3955 24.4046 37.1371 24.797 36.8691 25.1033C36.5437 25.4478 36.2087 25.735 35.8641 25.9647ZM36.5245 13.3308C36.7542 13.5414 36.9744 13.7711 37.1849 14.0199C37.3955 14.2496 37.5199 14.5272 37.5582 14.8526V14.9675C37.5582 15.0632 37.5391 15.1398 37.5008 15.1972C37.2711 15.5417 37.0988 15.915 36.9839 16.317C36.9839 16.3553 36.9744 16.384 36.9552 16.4031C36.9361 16.4606 36.8882 16.5371 36.8117 16.6329C36.7542 16.7286 36.6585 16.7668 36.5245 16.7477C36.1417 16.6711 35.8545 16.5563 35.6631 16.4031C35.4908 16.25 35.3664 16.0969 35.2899 15.9437C35.2324 15.7906 35.2037 15.6375 35.2037 15.4843C35.2037 15.3312 35.2229 15.2068 35.2611 15.111C35.2803 15.0536 35.2899 14.9962 35.2899 14.9388C35.309 14.8622 35.3377 14.8048 35.376 14.7665C35.4717 14.5368 35.5866 14.3071 35.7206 14.0774C35.8737 13.8477 36.0268 13.6275 36.18 13.417C36.2183 13.3787 36.2565 13.35 36.2948 13.3308C36.3905 13.2925 36.4671 13.2925 36.5245 13.3308Z" fill="#37607F"/>
<path d="M43.156 22.4617C43.022 22.9211 42.8401 23.3613 42.6104 23.7825C42.3998 24.1845 42.1127 24.5482 41.749 24.8736C41.3853 25.1798 40.945 25.4191 40.4282 25.5914C39.9305 25.7637 39.3371 25.8403 38.648 25.8211C38.112 25.802 37.7004 25.6967 37.4133 25.5053C37.107 25.2947 36.906 25.0363 36.8103 24.73C36.6955 24.4046 36.6667 24.0313 36.7242 23.6102C36.7625 23.1891 36.8582 22.7488 37.0113 22.2894C37.0304 22.2702 37.04 22.2415 37.04 22.2032L37.3559 21.4567C37.3942 21.361 37.4133 21.294 37.4133 21.2557C37.3942 21.2174 37.4037 21.1504 37.442 21.0547C37.4611 21.0164 37.5186 20.9973 37.6143 20.9973L37.643 21.026H37.7579C37.7961 21.0643 37.8153 21.0834 37.8153 21.0834H37.844C37.9971 21.1791 38.246 21.3227 38.5905 21.5141C38.9351 21.6864 39.1935 21.897 39.3658 22.1458V22.1745C39.3849 22.1745 39.4041 22.2032 39.4232 22.2607C39.4424 22.3181 39.4328 22.3851 39.3945 22.4617C39.3945 22.4999 39.3849 22.5287 39.3658 22.5478L39.3371 22.6052C39.2605 22.7201 39.2222 22.7871 39.2222 22.8062L39.1074 22.9498C38.9925 23.1986 38.8872 23.457 38.7915 23.725C38.715 23.9739 38.6575 24.2036 38.6193 24.4142C38.6001 24.6247 38.6097 24.797 38.648 24.931C38.7054 25.065 38.8011 25.132 38.9351 25.132C39.3371 25.132 39.6816 25.0363 39.9688 24.8449C40.2751 24.6343 40.5335 24.3759 40.744 24.0696C40.9546 23.7633 41.1269 23.4379 41.2609 23.0933C41.3949 22.7488 41.5002 22.4329 41.5767 22.1458C41.6916 21.6673 41.6533 21.3227 41.4619 21.1121C41.2704 20.8824 40.9929 20.7293 40.6292 20.6527C40.2846 20.557 39.8731 20.5187 39.3945 20.5379C38.916 20.557 38.4374 20.5666 37.9588 20.5666C37.8823 20.5666 37.844 20.5283 37.844 20.4517L37.9014 20.423C37.9588 20.1167 37.978 19.8296 37.9588 19.5616C37.9588 19.2936 37.9397 19.0735 37.9014 18.9012C37.8823 18.8629 37.8918 18.8246 37.9301 18.7863C37.9876 18.7481 38.0163 18.7194 38.0163 18.7002C38.5523 18.2025 39.1744 17.8197 39.8826 17.5517C40.5909 17.2645 41.3279 17.0636 42.0936 16.9487C42.4764 16.9678 42.8018 17.2071 43.0698 17.6665C43.1081 17.8005 43.1272 17.9441 43.1272 18.0972C43.1272 18.2312 43.0985 18.3748 43.0411 18.5279C42.9837 18.6811 42.8688 18.8438 42.6965 19.0161L42.5817 19.0735C42.486 19.1118 42.3998 19.1213 42.3233 19.1022C42.3041 19.1022 42.2946 19.0639 42.2946 18.9873C42.2946 18.9491 42.3041 18.9108 42.3233 18.8725C42.3233 18.8342 42.2658 18.7672 42.151 18.6715C42.0553 18.5758 41.8926 18.4992 41.6629 18.4418C41.4523 18.3844 41.1652 18.3844 40.8015 18.4418C40.4569 18.4992 40.0358 18.6715 39.5381 18.9586C39.8826 18.9586 40.2942 19.0256 40.7728 19.1596C41.2513 19.2936 41.6916 19.5042 42.0936 19.7913C42.4955 20.0593 42.8114 20.4134 43.0411 20.8537C43.2708 21.294 43.3091 21.83 43.156 22.4617Z" fill="#37607F"/>
<path d="M44.2381 25.132C44.1807 25.0937 44.1329 25.0363 44.0946 24.9597C44.0754 24.8831 44.0467 24.8161 44.0084 24.7587C43.9702 24.6821 43.951 24.6056 43.951 24.529C43.7979 23.5528 43.7979 22.6818 43.951 21.9161C44.1041 21.1504 44.2573 20.5761 44.4104 20.1933C44.5636 19.8679 44.6976 19.6095 44.8124 19.418C44.9464 19.2266 45.0517 19.0831 45.1283 18.9873C45.1665 18.9682 45.1953 18.9491 45.2144 18.9299C45.2335 18.9108 45.2527 18.8916 45.2718 18.8725L45.358 18.7863C45.3771 18.7672 45.4154 18.7481 45.4728 18.7289C45.5877 18.6906 45.693 18.6715 45.7887 18.6715C46.2098 18.7098 46.5065 18.8246 46.6788 19.0161C46.8702 19.1883 46.9946 19.351 47.052 19.5042V19.619C47.0138 19.7339 46.9563 19.82 46.8798 19.8775C46.6883 20.0306 46.5256 20.1837 46.3916 20.3369C46.2768 20.4709 46.1715 20.6144 46.0758 20.7676L46.0471 20.7963C45.8748 21.1217 45.7408 21.4758 45.6451 21.8587C45.5494 22.2415 45.4824 22.6244 45.4441 23.0072C45.3675 23.5623 45.3484 24.0409 45.3867 24.4429C45.4441 24.8257 45.5494 25.0267 45.7025 25.0459C45.8174 25.065 45.9609 25.0459 46.1332 24.9884C46.3246 24.9119 46.5256 24.7874 46.7362 24.6152C46.9468 24.4429 47.1573 24.2227 47.3679 23.9547C47.5976 23.6676 47.7986 23.3231 47.9709 22.9211C48.0092 22.8254 48.0474 22.7296 48.0857 22.6339C48.124 22.5191 48.1623 22.4042 48.2006 22.2894C48.4686 21.294 48.5739 20.5379 48.5164 20.021C48.459 19.5042 48.4111 19.2266 48.3729 19.1883C48.2963 18.9395 48.1719 18.7098 47.9996 18.4992C47.8273 18.2887 47.5593 18.1547 47.1956 18.0972C47.1765 18.1355 47.1382 18.1642 47.0808 18.1834C47.0425 18.2025 46.9946 18.2217 46.9372 18.2408C46.8798 18.2599 46.8319 18.2504 46.7936 18.2121C46.6979 18.1738 46.6596 18.0494 46.6788 17.8388C46.7171 17.6091 46.8415 17.389 47.052 17.1784C47.32 16.9104 47.6359 16.7573 47.9996 16.719C48.3633 16.6807 48.7461 16.7764 49.1481 17.0061C49.2438 17.0827 49.3683 17.1975 49.5214 17.3507C49.6745 17.4847 49.8181 17.6761 49.9521 17.925C50.0861 18.1738 50.1914 18.4801 50.2679 18.8438C50.3637 19.2075 50.4019 19.6382 50.3828 20.1359C50.2871 21.0356 50.1052 21.8204 49.8372 22.4904C49.5692 23.1412 49.2725 23.6963 48.9471 24.1557C48.6217 24.6152 48.2867 24.9884 47.9422 25.2756C47.6167 25.5627 47.3392 25.7733 47.1095 25.9073C46.9181 26.0221 46.7171 26.0795 46.5065 26.0795H46.2194C45.6642 25.9838 45.2335 25.8403 44.9273 25.6488C44.621 25.4574 44.3913 25.2851 44.2381 25.132Z" fill="#37607F"/>
<path d="M56.507 24.9023C57.0047 24.6917 57.3971 24.3759 57.6843 23.9547C57.9714 23.5336 58.1915 23.1125 58.3447 22.6914C58.517 22.1937 58.6222 21.6864 58.6605 21.1696C58.8137 21.2653 58.9285 21.361 59.0051 21.4567C59.1008 21.5524 59.1678 21.6481 59.2061 21.7438C59.2635 21.8395 59.3018 21.9352 59.3209 22.031C59.2061 22.7392 59.0147 23.3231 58.7467 23.7825C58.4978 24.2419 58.2394 24.6056 57.9714 24.8736C57.646 25.199 57.311 25.4478 56.9664 25.6201C56.3156 25.467 55.7796 25.266 55.3585 25.0171C54.9374 24.7683 54.6885 24.4524 54.612 24.0696C54.4971 23.457 54.5067 22.7201 54.6407 21.8587C54.7938 20.9781 54.9757 20.1454 55.1862 19.3606C54.7459 19.8966 54.3535 20.5187 54.009 21.227C53.6836 21.9161 53.406 22.5861 53.1763 23.2369C52.9466 23.8686 52.7743 24.4142 52.6594 24.8736C52.5446 25.333 52.4776 25.5914 52.4585 25.6488C52.4585 25.7445 52.4106 25.7924 52.3149 25.7924C52.1809 25.7541 51.9799 25.7158 51.7119 25.6775C51.4631 25.6201 51.1855 25.5148 50.8792 25.3617C50.8218 25.3426 50.7931 25.3043 50.7931 25.2468V25.1894C50.7548 24.7683 50.7644 24.261 50.8218 23.6676C50.8601 23.0742 50.9366 22.4521 51.0515 21.8012C51.1664 21.1313 51.3003 20.4517 51.4535 19.7626C51.6066 19.0543 51.7598 18.3844 51.9129 17.7527C51.932 17.657 51.9225 17.59 51.8842 17.5517C51.865 17.5134 51.865 17.4464 51.8842 17.3507C51.9033 17.2933 51.9608 17.2645 52.0565 17.2645H52.0852H52.1713H52.2C52.2192 17.2837 52.2383 17.2933 52.2575 17.2933H52.2862C52.4585 17.3507 52.6882 17.4464 52.9753 17.5804C53.2816 17.6952 53.5496 17.858 53.7793 18.0685L53.808 18.0972C53.8271 18.0972 53.8558 18.1259 53.8941 18.1834C53.9324 18.2217 53.942 18.2887 53.9228 18.3844C53.9228 18.4226 53.9133 18.4514 53.8941 18.4705V18.5279C53.8558 18.6428 53.8367 18.7098 53.8367 18.7289C53.7218 19.1118 53.607 19.5138 53.4921 19.9349C53.3964 20.356 53.3007 20.7771 53.205 21.1983C53.6453 20.2794 54.0951 19.5042 54.5545 18.8725C55.0331 18.2408 55.4064 17.7718 55.6743 17.4655L55.7031 17.4368L55.8753 17.2645C55.9519 17.188 56.038 17.1497 56.1338 17.1497C56.1912 17.1497 56.2486 17.1593 56.306 17.1784C56.4975 17.255 56.708 17.3507 56.9377 17.4655C57.1866 17.5804 57.4067 17.724 57.5981 17.8962C57.6364 17.9154 57.6747 17.9537 57.713 18.0111C57.7513 18.0685 57.7513 18.1642 57.713 18.2982V18.3269V18.3556C57.3301 19.3702 57.0526 20.289 56.8803 21.1121C56.708 21.9161 56.5932 22.5956 56.5357 23.1508C56.4592 23.8208 56.4496 24.4046 56.507 24.9023Z" fill="#37607F"/>
<path d="M66.9154 27.1132C66.5708 27.0941 66.1975 27.0271 65.7956 26.9122C65.4127 26.8165 65.1447 26.6538 64.9916 26.4241C64.915 26.3284 64.8672 26.1944 64.848 26.0221C64.848 25.869 64.8576 25.6967 64.8767 25.5053C64.8959 25.3138 64.9246 25.132 64.9629 24.9597C65.0012 24.7683 65.0299 24.596 65.049 24.4429C65.1447 23.7538 65.2787 23.0168 65.451 22.2319C65.6424 21.4471 65.8338 20.7101 66.0253 20.021C65.7381 19.5042 65.5276 19.0065 65.3936 18.5279C65.2596 18.0494 65.1639 17.6282 65.1064 17.2645C65.0299 16.8434 65.0107 16.451 65.049 16.0873C65.049 15.6662 65.1256 15.2833 65.2787 14.9388C65.4319 14.5751 65.6424 14.2496 65.9104 13.9625C66.1784 13.6562 66.4847 13.3882 66.8292 13.1585C67.1929 12.9097 67.5662 12.6896 67.9491 12.4981C67.9873 12.1536 67.9491 11.8282 67.8342 11.5219C67.8151 11.4836 67.8055 11.4453 67.8055 11.407C67.8055 11.3496 67.8533 11.3113 67.9491 11.2922C68.5425 11.2922 69.1167 11.4549 69.6719 11.7803L69.7006 11.809C70.1408 11.675 70.5428 11.5793 70.9065 11.5219C71.2894 11.4453 71.5956 11.3975 71.8254 11.3783C72.1699 11.3592 72.5623 11.3496 73.0026 11.3496C73.4429 11.3496 73.864 11.3783 74.266 11.4357C74.668 11.4932 75.0221 11.5889 75.3284 11.7229C75.6347 11.8569 75.8356 12.0387 75.9314 12.2684C76.1228 12.747 76.2663 13.283 76.3621 13.8764C76.4578 14.4698 76.4578 14.9771 76.3621 15.3982C76.2855 15.7045 76.0941 15.9054 75.7878 16.0012C75.5007 16.0777 75.2231 16.1352 74.9551 16.1734C74.8211 16.1926 74.6967 16.1256 74.5818 15.9724C74.5627 15.915 74.5723 15.8672 74.6105 15.8289L74.668 15.7715C74.8403 15.6757 74.9934 15.58 75.1274 15.4843C75.2805 15.3695 75.3475 15.1493 75.3284 14.8239C75.3284 14.5942 75.1944 14.3645 74.9264 14.1348C74.6775 13.8859 74.3138 13.6945 73.8353 13.5605C73.3567 13.4265 72.7825 13.3691 72.1125 13.3882C71.4617 13.4074 70.7247 13.551 69.9016 13.8189C69.8441 13.8189 69.8059 13.8285 69.7867 13.8477C69.6336 14.5942 69.4613 15.3216 69.2699 16.0299C69.0976 16.7381 68.9062 17.4464 68.6956 18.1547C68.9636 18.1164 69.2316 18.0972 69.4996 18.0972C69.7867 18.0781 70.1026 18.0589 70.4471 18.0398C70.6194 18.0398 70.7917 18.0302 70.964 18.0111C71.1554 17.9919 71.3372 17.9345 71.5095 17.8388H71.5956C71.6339 17.8388 71.6722 17.8675 71.7105 17.925C71.8254 18.3844 71.7966 18.8438 71.6244 19.3032C71.6052 19.3415 71.5765 19.3798 71.5382 19.418C71.4617 19.4946 71.3564 19.5329 71.2224 19.5329C70.629 19.5712 70.1026 19.5999 69.6431 19.619C69.1837 19.619 68.7052 19.6573 68.2075 19.7339C67.9969 20.4039 67.7959 21.1217 67.6045 21.8874C67.4322 22.6339 67.2982 23.3231 67.2025 23.9547C67.1259 24.5099 67.0685 25.0171 67.0302 25.4766C66.9919 25.9168 67.0111 26.3762 67.0877 26.8548C67.1068 26.9122 67.1068 26.9601 67.0877 26.9984C67.0494 27.0749 66.9919 27.1132 66.9154 27.1132ZM66.2263 16.92C66.2071 17.0157 66.3603 17.322 66.6857 17.8388C66.8197 17.3603 66.9441 16.8913 67.0589 16.4319C67.1929 15.9533 67.3174 15.4652 67.4322 14.9675C66.9154 15.3503 66.5804 15.7236 66.4273 16.0873C66.2933 16.4319 66.2263 16.7094 66.2263 16.92Z" fill="#37607F"/>
<path d="M73.4004 23.9547C73.5727 24.1079 73.7354 24.2802 73.8885 24.4716C74.0416 24.6439 74.1374 24.8544 74.1756 25.1033C74.1948 25.1224 74.2044 25.1511 74.2044 25.1894C74.2044 25.2277 74.1852 25.2851 74.1469 25.3617C73.9555 25.6488 73.8215 25.9264 73.7449 26.1944V26.2518C73.7258 26.2901 73.6875 26.3475 73.6301 26.4241C73.5727 26.5007 73.4961 26.5294 73.4004 26.5102C73.1133 26.4528 72.9027 26.3667 72.7687 26.2518C72.6347 26.137 72.539 26.0221 72.4816 25.9073C72.4433 25.8115 72.4241 25.7063 72.4241 25.5914C72.4241 25.4766 72.4337 25.3713 72.4528 25.2756L72.539 25.0171C72.7304 24.6343 72.9314 24.2993 73.142 24.0122C73.1611 23.993 73.1898 23.9739 73.2281 23.9547C73.3047 23.9165 73.3621 23.9165 73.4004 23.9547Z" fill="#37607F"/>
<path d="M83.9672 13.7328C84.2352 13.5031 84.5893 13.2638 85.0296 13.015C85.489 12.747 85.9867 12.4981 86.5226 12.2684C87.0586 12.0387 87.6138 11.8473 88.188 11.6942C88.7814 11.541 89.3461 11.4549 89.8821 11.4357C90.4372 11.4166 90.9445 11.4836 91.4039 11.6367C91.8825 11.7899 92.2749 12.0579 92.5812 12.4407C93.0597 12.9767 93.4234 13.5797 93.6723 14.2496C93.8828 14.8239 93.9977 15.5035 94.0168 16.2883C94.0551 17.054 93.8541 17.8962 93.4138 18.8151C93.0693 19.5042 92.6099 20.088 92.0356 20.5666C91.4613 21.026 90.8584 21.4088 90.2267 21.7151C89.595 22.0214 88.9633 22.2607 88.3316 22.4329C87.719 22.6052 87.2022 22.7201 86.7811 22.7775C86.6854 23.2752 86.5992 23.7538 86.5226 24.2132C86.4461 24.6726 86.3791 25.0937 86.3217 25.4766C86.2834 25.8403 86.2451 26.1465 86.2068 26.3954C86.1877 26.6634 86.1781 26.8452 86.1781 26.9409C86.1781 26.9984 86.1685 27.0462 86.1494 27.0845C86.1111 27.1611 86.0441 27.1993 85.9484 27.1993C85.4507 27.1611 85.0487 27.0558 84.7424 26.8835C84.4361 26.7304 84.216 26.5772 84.082 26.4241C84.0437 26.3667 84.0533 26.1178 84.1107 25.6775C84.1873 25.2373 84.2926 24.6917 84.4266 24.0409C84.5797 23.3709 84.7424 22.6531 84.9147 21.8874C85.1061 21.1026 85.288 20.356 85.4603 19.6477C85.2305 19.7435 84.9243 19.8392 84.5414 19.9349C84.1777 20.0306 83.8715 20.0019 83.6226 19.8487C83.4503 19.7339 83.2685 19.5808 83.077 19.3893C82.8856 19.1979 82.7038 18.9778 82.5315 18.7289C82.3592 18.4801 82.1965 18.2312 82.0434 17.9824C81.8902 17.7144 81.7658 17.4655 81.6701 17.2358C81.5744 17.0061 81.584 16.7381 81.6988 16.4319C81.8328 16.1064 82.0242 15.781 82.2731 15.4556C82.5219 15.1302 82.7995 14.8143 83.1058 14.5081C83.412 14.2018 83.6992 13.9434 83.9672 13.7328ZM90.9158 18.6715C91.2029 18.2887 91.4613 17.8771 91.691 17.4368C91.9399 16.9774 92.1217 16.518 92.2366 16.0586C92.3706 15.5992 92.428 15.1589 92.4089 14.7378C92.3897 14.3166 92.2653 13.9338 92.0356 13.5892C91.9399 13.4552 91.7676 13.3404 91.5188 13.2447C91.2891 13.1298 90.9732 13.0724 90.5712 13.0724C90.1692 13.0724 89.6715 13.1585 89.0781 13.3308C88.5039 13.484 87.8339 13.7424 87.0682 14.1061C86.2834 14.4889 85.6517 14.9101 85.1731 15.3695C84.6946 15.8289 84.3404 16.2787 84.1107 16.719C83.881 17.1593 83.7566 17.5612 83.7375 17.925C83.7183 18.2887 83.7949 18.5566 83.9672 18.7289C84.2352 18.9969 84.5319 19.1405 84.8573 19.1596C85.1827 19.1596 85.4315 19.1405 85.6038 19.1022C85.757 18.4896 85.891 17.9537 86.0058 17.4943C86.1398 17.0157 86.2259 16.6903 86.2642 16.518C86.3599 16.1926 86.4078 15.9342 86.4078 15.7427C86.4078 15.5513 86.3886 15.4078 86.3504 15.312C86.3312 15.2929 86.3312 15.2642 86.3504 15.2259C86.3886 15.1493 86.4461 15.111 86.5226 15.111C86.9055 15.111 87.2405 15.178 87.5276 15.312C87.8339 15.446 88.0636 15.5609 88.2167 15.6566C88.255 15.6949 88.2933 15.7427 88.3316 15.8002C88.389 15.8959 88.4082 16.0394 88.389 16.2309C88.3316 16.4414 88.2646 16.6998 88.188 17.0061C88.1114 17.3124 88.0253 17.6091 87.9296 17.8962C87.8339 18.2408 87.7382 18.5949 87.6425 18.9586C87.5276 19.3415 87.4128 19.7626 87.2979 20.222C87.2022 20.6623 87.1065 21.1217 87.0108 21.6003C87.6042 21.3514 88.2646 20.9973 88.992 20.5379C89.7194 20.0784 90.3607 19.4563 90.9158 18.6715Z" fill="#37607F"/>
<path d="M93.9046 25.132C93.8472 25.0937 93.7993 25.0363 93.761 24.9597C93.7419 24.8831 93.7132 24.8161 93.6749 24.7587C93.6366 24.6821 93.6175 24.6056 93.6175 24.529C93.4643 23.5528 93.4643 22.6818 93.6175 21.9161C93.7706 21.1504 93.9237 20.5761 94.0769 20.1933C94.23 19.8679 94.364 19.6095 94.4789 19.418C94.6129 19.2266 94.7181 19.0831 94.7947 18.9873C94.833 18.9682 94.8617 18.9491 94.8809 18.9299C94.9 18.9108 94.9191 18.8916 94.9383 18.8725L95.0244 18.7863C95.0436 18.7672 95.0818 18.7481 95.1393 18.7289C95.2541 18.6906 95.3594 18.6715 95.4551 18.6715C95.8763 18.7098 96.173 18.8246 96.3452 19.0161C96.5367 19.1883 96.6611 19.351 96.7185 19.5042V19.619C96.6802 19.7339 96.6228 19.82 96.5462 19.8775C96.3548 20.0306 96.1921 20.1837 96.0581 20.3369C95.9432 20.4709 95.838 20.6144 95.7423 20.7676L95.7135 20.7963C95.5413 21.1217 95.4073 21.4758 95.3116 21.8587C95.2158 22.2415 95.1488 22.6244 95.1106 23.0072C95.034 23.5623 95.0149 24.0409 95.0531 24.4429C95.1106 24.8257 95.2158 25.0267 95.369 25.0459C95.4838 25.065 95.6274 25.0459 95.7997 24.9884C95.9911 24.9119 96.1921 24.7874 96.4027 24.6152C96.6132 24.4429 96.8238 24.2227 97.0344 23.9547C97.2641 23.6676 97.4651 23.3231 97.6373 22.9211C97.6756 22.8254 97.7139 22.7296 97.7522 22.6339C97.7905 22.5191 97.8288 22.4042 97.867 22.2894C98.135 21.294 98.2403 20.5379 98.1829 20.021C98.1255 19.5042 98.0776 19.2266 98.0393 19.1883C97.9627 18.9395 97.8383 18.7098 97.666 18.4992C97.4938 18.2887 97.2258 18.1547 96.8621 18.0972C96.8429 18.1355 96.8046 18.1642 96.7472 18.1834C96.7089 18.2025 96.6611 18.2217 96.6037 18.2408C96.5462 18.2599 96.4984 18.2504 96.4601 18.2121C96.3644 18.1738 96.3261 18.0494 96.3452 17.8388C96.3835 17.6091 96.5079 17.389 96.7185 17.1784C96.9865 16.9104 97.3023 16.7573 97.666 16.719C98.0297 16.6807 98.4126 16.7764 98.8146 17.0061C98.9103 17.0827 99.0347 17.1975 99.1879 17.3507C99.341 17.4847 99.4846 17.6761 99.6186 17.925C99.7525 18.1738 99.8578 18.4801 99.9344 18.8438C100.03 19.2075 100.068 19.6382 100.049 20.1359C99.9535 21.0356 99.7717 21.8204 99.5037 22.4904C99.2357 23.1412 98.939 23.6963 98.6136 24.1557C98.2882 24.6152 97.9532 24.9884 97.6086 25.2756C97.2832 25.5627 97.0056 25.7733 96.7759 25.9073C96.5845 26.0221 96.3835 26.0795 96.173 26.0795H95.8858C95.3307 25.9838 94.9 25.8403 94.5937 25.6488C94.2874 25.4574 94.0577 25.2851 93.9046 25.132Z" fill="#37607F"/>
<path d="M105.886 16.9487C106.078 17.1018 106.212 17.2741 106.288 17.4655C106.384 17.657 106.451 17.8101 106.489 17.925C106.489 17.9632 106.489 18.0111 106.489 18.0685C106.508 18.1259 106.508 18.1929 106.489 18.2695C106.298 19.4755 106.049 20.5091 105.743 21.3705C105.437 22.2128 105.111 22.9211 104.767 23.4953C104.441 24.0696 104.125 24.5194 103.819 24.8449C103.513 25.1703 103.273 25.4 103.101 25.534C103.005 25.6297 102.919 25.6967 102.843 25.735C102.804 25.7541 102.776 25.7733 102.757 25.7924C102.393 25.6967 102.096 25.5723 101.866 25.4191C101.637 25.266 101.445 25.1033 101.292 24.931C101.12 24.7396 100.976 24.529 100.862 24.2993C100.728 23.3805 100.689 22.5382 100.747 21.7725C100.804 20.9877 100.9 20.2986 101.034 19.7052C101.187 19.0926 101.35 18.5758 101.522 18.1547C101.694 17.7335 101.828 17.4368 101.924 17.2645C101.943 17.2263 101.972 17.188 102.01 17.1497C102.106 17.054 102.201 16.987 102.297 16.9487C102.527 16.8721 102.747 16.8626 102.958 16.92C103.187 16.9774 103.388 17.054 103.561 17.1497C103.771 17.2454 103.934 17.3603 104.049 17.4943C104.183 17.6282 104.278 17.7431 104.336 17.8388C104.374 17.9154 104.365 17.9728 104.307 18.0111C104.269 18.0302 104.231 18.0302 104.192 18.0111C104.135 18.0111 104.087 18.0302 104.049 18.0685C104.03 18.0877 104.01 18.0972 103.991 18.0972C103.57 18.7098 103.264 19.4085 103.072 20.1933C102.9 20.959 102.776 21.6864 102.699 22.3755C102.623 23.1795 102.603 24.0026 102.642 24.8449C103.312 24.06 103.819 23.2273 104.164 22.3468C104.508 21.4663 104.747 20.6336 104.881 19.8487C105.035 18.9491 105.102 18.0494 105.082 17.1497C105.082 17.054 105.054 16.9774 104.996 16.92C104.958 16.8434 104.92 16.786 104.881 16.7477C104.843 16.7477 104.824 16.7286 104.824 16.6903C104.824 16.652 104.834 16.6233 104.853 16.6041C104.929 16.5659 104.996 16.5467 105.054 16.5467C105.092 16.5467 105.159 16.5563 105.255 16.5754C105.37 16.5946 105.504 16.652 105.657 16.7477C105.695 16.786 105.733 16.8243 105.771 16.8626C105.81 16.8817 105.848 16.9104 105.886 16.9487Z" fill="#37607F"/>
<path d="M113.861 22.2894C113.593 23.2656 113.201 23.993 112.684 24.4716C112.186 24.9501 111.669 25.2851 111.133 25.4766C110.674 25.6297 110.234 25.7063 109.813 25.7063C109.411 25.7063 109.104 25.6871 108.894 25.6488C108.377 25.5531 107.965 25.3808 107.659 25.132C107.353 24.864 107.123 24.5577 106.97 24.2132C106.836 23.8686 106.759 23.5145 106.74 23.1508C106.702 22.7679 106.702 22.4042 106.74 22.0597C106.779 21.6577 106.846 21.294 106.941 20.9686C107.037 20.624 107.133 20.3464 107.228 20.1359C107.401 19.7339 107.592 19.3606 107.803 19.0161C108.013 18.6524 108.243 18.3365 108.492 18.0685C108.741 17.8005 108.99 17.59 109.238 17.4368C109.506 17.2837 109.784 17.2167 110.071 17.2358C110.32 17.2741 110.569 17.3315 110.818 17.4081C111.028 17.4847 111.258 17.59 111.507 17.724C111.756 17.858 111.985 18.0494 112.196 18.2982C112.215 18.3174 112.263 18.3844 112.339 18.4992C112.435 18.6141 112.502 18.7768 112.54 18.9873C112.579 19.1979 112.56 19.4468 112.483 19.7339C112.426 20.021 112.253 20.3369 111.966 20.6814C111.698 21.026 111.287 21.4088 110.731 21.83C110.196 22.2319 109.468 22.6531 108.549 23.0933C108.511 23.3805 108.492 23.6293 108.492 23.8399C108.511 24.0505 108.54 24.2323 108.578 24.3854C108.616 24.5577 108.655 24.6917 108.693 24.7874C108.769 24.9023 108.903 24.9884 109.095 25.0459C109.286 25.0841 109.497 25.0937 109.727 25.0746C109.956 25.0554 110.176 25.0267 110.387 24.9884C110.617 24.931 110.808 24.8736 110.961 24.8161C111.344 24.663 111.66 24.4524 111.909 24.1845C112.177 23.9165 112.397 23.6389 112.569 23.3518C112.741 23.0646 112.866 22.7966 112.942 22.5478C113.038 22.2798 113.105 22.0692 113.143 21.9161C113.163 21.8204 113.182 21.7342 113.201 21.6577C113.22 21.5811 113.23 21.5141 113.23 21.4567V21.2844C113.498 21.4375 113.679 21.6194 113.775 21.83C113.833 21.9257 113.871 22.0214 113.89 22.1171C113.89 22.1937 113.88 22.2415 113.861 22.2607V22.2894ZM109.124 21.026C109.047 21.2174 108.98 21.3993 108.923 21.5715C108.865 21.7438 108.808 21.9065 108.75 22.0597C109.057 21.8682 109.42 21.629 109.841 21.3418C110.282 21.0356 110.674 20.7197 111.019 20.3943C111.363 20.0689 111.602 19.7339 111.736 19.3893C111.87 19.0448 111.813 18.7385 111.564 18.4705V18.4418C111.411 18.4609 111.267 18.4896 111.133 18.5279C110.999 18.5662 110.856 18.6428 110.703 18.7576C110.397 18.9682 110.109 19.2745 109.841 19.6765C109.573 20.0784 109.334 20.5283 109.124 21.026Z" fill="#37607F"/>
<path d="M120.812 21.2844C120.966 21.3801 121.08 21.4758 121.157 21.5715C121.234 21.6481 121.291 21.7342 121.329 21.83C121.387 21.9257 121.425 22.0214 121.444 22.1171C121.348 22.8254 121.167 23.4188 120.899 23.8973C120.65 24.3567 120.391 24.7204 120.123 24.9884C119.798 25.3138 119.463 25.5627 119.118 25.735C118.468 25.5818 117.922 25.3808 117.482 25.132C117.061 24.864 116.821 24.5482 116.764 24.1845C116.726 24.0122 116.706 23.8208 116.706 23.6102C116.706 23.3996 116.716 23.1891 116.735 22.9785C116.62 23.2848 116.505 23.591 116.391 23.8973C116.295 24.2036 116.199 24.4812 116.103 24.73C116.008 24.9597 115.922 25.1607 115.845 25.333C115.768 25.4861 115.711 25.5818 115.673 25.6201C115.252 25.6967 114.869 25.7158 114.524 25.6775C114.218 25.6393 113.912 25.5531 113.605 25.4191C113.299 25.2851 113.069 25.0267 112.916 24.6439C112.878 24.4142 112.859 24.1653 112.859 23.8973C112.859 23.6676 112.868 23.3901 112.888 23.0646C112.888 22.7392 112.916 22.3851 112.974 22.0022C113.05 21.4854 113.165 20.9494 113.318 20.3943C113.491 19.8392 113.692 19.3319 113.921 18.8725C114.151 18.4131 114.409 18.0398 114.697 17.7527C115.003 17.4464 115.347 17.2837 115.73 17.2645C115.96 17.2454 116.19 17.255 116.419 17.2933C116.63 17.3315 116.85 17.389 117.08 17.4655C117.309 17.5421 117.549 17.6665 117.798 17.8388C117.951 17.2263 118.094 16.6711 118.228 16.1734C118.362 15.6757 118.477 15.2642 118.573 14.9388C118.63 14.7473 118.64 14.6325 118.602 14.5942C118.563 14.5368 118.563 14.4602 118.602 14.3645C118.621 14.2879 118.678 14.2496 118.774 14.2496C118.812 14.2496 118.841 14.2592 118.86 14.2784C118.879 14.2784 118.898 14.2784 118.917 14.2784C118.937 14.2784 118.956 14.2879 118.975 14.3071C119.147 14.3645 119.386 14.4602 119.693 14.5942C119.999 14.7282 120.276 14.9005 120.525 15.111C120.564 15.1302 120.592 15.1589 120.611 15.1972C120.65 15.2929 120.659 15.3982 120.64 15.513C120.544 15.8002 120.391 16.3266 120.181 17.0923C119.97 17.8388 119.74 18.6715 119.492 19.5903C119.453 19.8009 119.405 20.0019 119.348 20.1933C119.291 20.3847 119.243 20.5857 119.205 20.7963C119.166 20.9303 119.128 21.0643 119.09 21.1983C119.071 21.3131 119.042 21.4375 119.004 21.5715C118.87 22.1458 118.774 22.6531 118.716 23.0933C118.678 23.5145 118.649 23.8686 118.63 24.1557C118.611 24.5003 118.621 24.7779 118.659 24.9884C119.157 24.7779 119.549 24.462 119.836 24.0409C120.123 23.6198 120.343 23.2082 120.497 22.8062C120.669 22.3277 120.774 21.8204 120.812 21.2844ZM117.424 19.3893C117.463 19.1788 117.51 18.9778 117.568 18.7863C117.625 18.5949 117.673 18.3939 117.711 18.1834C117.539 18.1834 117.348 18.2217 117.137 18.2982C116.927 18.3556 116.735 18.4705 116.563 18.6428C116.276 18.9299 116.017 19.3223 115.788 19.82C115.558 20.3177 115.366 20.8537 115.213 21.428C115.079 21.9831 114.993 22.5478 114.955 23.1221C114.917 23.6963 114.936 24.2227 115.012 24.7013C115.28 24.3376 115.548 23.9069 115.816 23.4092C116.046 22.9689 116.304 22.4234 116.592 21.7725C116.879 21.1217 117.156 20.3464 117.424 19.4468V19.3893Z" fill="#37607F"/>
<path d="M128.413 21.2844C128.566 21.3801 128.681 21.4758 128.757 21.5715C128.834 21.6481 128.891 21.7342 128.93 21.83C128.987 21.9257 129.025 22.0214 129.044 22.1171C128.949 22.8254 128.767 23.4188 128.499 23.8973C128.25 24.3567 127.992 24.7204 127.724 24.9884C127.398 25.3138 127.063 25.5627 126.719 25.735C126.068 25.5818 125.522 25.3808 125.082 25.132C124.661 24.864 124.422 24.5482 124.364 24.1845C124.326 24.0122 124.307 23.8208 124.307 23.6102C124.307 23.3996 124.316 23.1891 124.335 22.9785C124.221 23.2848 124.106 23.591 123.991 23.8973C123.895 24.2036 123.8 24.4812 123.704 24.73C123.608 24.9597 123.522 25.1607 123.445 25.333C123.369 25.4861 123.311 25.5818 123.273 25.6201C122.852 25.6967 122.469 25.7158 122.125 25.6775C121.818 25.6393 121.512 25.5531 121.206 25.4191C120.899 25.2851 120.67 25.0267 120.517 24.6439C120.478 24.4142 120.459 24.1653 120.459 23.8973C120.459 23.6676 120.469 23.3901 120.488 23.0646C120.488 22.7392 120.517 22.3851 120.574 22.0022C120.651 21.4854 120.765 20.9494 120.919 20.3943C121.091 19.8392 121.292 19.3319 121.522 18.8725C121.751 18.4131 122.01 18.0398 122.297 17.7527C122.603 17.4464 122.948 17.2837 123.331 17.2645C123.579 17.2454 123.828 17.2645 124.077 17.322C124.288 17.3603 124.527 17.4273 124.795 17.523C125.063 17.6187 125.321 17.7718 125.57 17.9824C125.57 18.0015 125.58 18.0207 125.599 18.0398C125.599 18.0972 125.599 18.1259 125.599 18.1259C125.561 18.1642 125.532 18.1834 125.513 18.1834H125.455C125.283 18.1834 125.072 18.2121 124.824 18.2695C124.594 18.3078 124.374 18.4322 124.163 18.6428C123.876 18.9299 123.618 19.3223 123.388 19.82C123.158 20.3177 122.967 20.8537 122.814 21.428C122.68 21.9831 122.594 22.5478 122.555 23.1221C122.517 23.6963 122.536 24.2227 122.613 24.7013C122.881 24.3376 123.149 23.9069 123.417 23.4092C123.646 22.9689 123.905 22.4234 124.192 21.7725C124.479 21.1217 124.757 20.3464 125.025 19.4468C125.063 19.2745 125.101 19.1309 125.139 19.0161C125.178 18.8821 125.206 18.7672 125.226 18.6715C125.245 18.6524 125.264 18.6236 125.283 18.5854C125.34 18.5279 125.407 18.5088 125.484 18.5279C126.02 18.6811 126.393 18.8438 126.604 19.0161C126.834 19.1692 126.987 19.3032 127.063 19.418C127.063 19.4563 127.073 19.4946 127.092 19.5329C127.092 19.5712 127.092 19.6095 127.092 19.6477C127.111 19.686 127.111 19.7339 127.092 19.7913C126.824 20.691 126.633 21.4663 126.518 22.1171C126.403 22.7488 126.326 23.2848 126.288 23.725C126.231 24.2227 126.221 24.6439 126.259 24.9884C126.757 24.7779 127.149 24.462 127.437 24.0409C127.724 23.6198 127.944 23.2082 128.097 22.8062C128.269 22.3277 128.375 21.8204 128.413 21.2844Z" fill="#37607F"/>
<path d="M25.3084 23.8632L18.5137 27.6222C18.8432 27.1497 19.1509 26.6583 19.4469 26.1582C20.4063 24.5324 21.1178 22.8411 21.5669 21.0782C22.9332 20.3185 24.2207 19.6026 25.5913 18.8415C25.7108 20.5373 25.6379 22.2126 25.3099 23.8632H25.3084Z" fill="white"/>
<path d="M25.4571 17.4899C25.514 17.9419 25.5592 18.391 25.5912 18.8401C24.2206 19.6012 22.9331 20.3171 21.5669 21.0768C21.9518 19.5648 22.1458 18.0002 22.1297 16.3803C22.1151 14.8332 22.0102 13.2949 21.6019 11.8223L23.6782 11.3148C24.6216 13.2527 25.1815 15.3261 25.4571 17.4899Z" fill="#5CA1D6"/>
<path d="M13.4747 31.6451C14.5712 31.3681 15.5087 30.814 16.3486 30.0835C17.187 29.3559 17.8884 28.5204 18.5124 27.6222L25.3072 23.8632C25.1351 24.7264 24.8945 25.5809 24.5767 26.4295C23.9672 28.0494 23.1871 29.5746 22.0104 30.8723C19.1277 34.0539 14.7068 34.3105 11.7308 33.0478C10.5833 32.5608 9.62387 31.8128 8.77234 30.9277C7.01387 29.0978 6.14047 26.9588 6.57353 24.3823C6.80682 22.9942 7.39006 21.7621 8.28971 20.7021C9.56992 19.1959 11.7804 18.9349 13.4907 20.0109C14.9955 20.9587 15.5394 22.3789 14.316 24.8708C12.7005 26.3216 11.375 26.6847 10.124 25.8885C9.45764 25.4642 8.9269 24.9029 8.41219 24.3196C8.19931 24.0776 8.14535 24.0805 7.96163 24.3546C7.6044 24.8883 7.4513 25.4847 7.49067 26.1204C7.61607 28.1719 8.55362 29.7948 10.1823 31.0065C11.1607 31.7341 12.2674 31.9484 13.4732 31.6451H13.4747Z" fill="#37607F"/>
<path d="M21.0758 4.73736L21.0029 4.68486L19.8277 0.0801936L19.8656 0L19.9516 0.0218706L24.0051 5.66033L24.0168 5.71429L23.4117 8.84044L23.3607 8.8944L20.5713 9.60594L20.497 9.5797L18.6904 7.06885L18.6772 7.01928L19.5346 0.128309L19.6002 0.0670712L19.6731 0.119561L20.8469 4.72278L20.8075 4.80297C20.4576 4.96045 20.2593 5.34976 20.357 5.73324C20.4678 6.16338 20.9052 6.42292 21.3354 6.31502C21.7655 6.20421 22.025 5.76677 21.9157 5.33663C21.818 4.9517 21.4578 4.70528 21.0744 4.73444L21.0758 4.73736Z" fill="white"/>
<path d="M24.5744 9.94821L24.5119 9.70232C24.432 9.38779 24.1122 9.19762 23.7977 9.27755L20.2407 10.1816C19.9262 10.2615 19.736 10.5813 19.816 10.8958L19.8785 11.1417C19.9584 11.4562 20.2782 11.6464 20.5927 11.5665L24.1497 10.6625C24.4642 10.5825 24.6544 10.2627 24.5744 9.94821Z" fill="#5A6E7F"/>
<path fill-rule="evenodd" clip-rule="evenodd" d="M24.4371 9.72157C24.3677 9.44879 24.0904 9.28386 23.8176 9.35319L20.2607 10.2572C19.9879 10.3265 19.823 10.6039 19.8923 10.8766L19.9548 11.1225C20.0241 11.3953 20.3015 11.5602 20.5742 11.4909L24.1312 10.5869C24.404 10.5176 24.5689 10.2402 24.4996 9.96746L24.4371 9.72157ZM23.7792 9.20198C24.1355 9.11143 24.4977 9.32685 24.5883 9.68314L24.6508 9.92903C24.7413 10.2853 24.5259 10.6475 24.1696 10.7381L20.6127 11.6421C20.2564 11.7327 19.8941 11.5172 19.8036 11.161L19.7411 10.9151C19.6505 10.5588 19.866 10.1965 20.2223 10.106L23.7792 9.20198Z" fill="#5A6E7F"/>
<path d="M5.74512 56.2903C56.483 33.8712 83.3432 34.2013 128.916 56.2903" stroke="#596E7F" stroke-width="3"/>
<path d="M66.4602 42.9952L71.3829 40.6273C72.1382 40.264 72.1382 39.1883 71.3829 38.825L66.4602 36.4571C65.7963 36.1378 65.0267 36.6216 65.0267 37.3583L65.0267 42.094C65.0267 42.8308 65.7963 43.3146 66.4602 42.9952Z" fill="white" stroke="#596E7F" stroke-width="3"/>
<rect x="128.906" y="52.3952" width="5.61837" height="5.61837" transform="rotate(45 128.906 52.3952)" fill="white" stroke="#596E7F" stroke-width="3"/>
<rect x="6.09424" y="52.3952" width="5.61837" height="5.61837" rx="2.80919" transform="rotate(45 6.09424 52.3952)" fill="white" stroke="#596E7F" stroke-width="3"/>
</svg>
